<svg width="154" height="48" viewBox="0 0 154 48" fill="none" xmlns="http://www.w3.org/2000/svg">
<g clip-path="url(#clip0_746_38)">
<path d="M60.6883 13.8955L57.885 17.5359H47.9591C47.4252 17.5359 47.1574 17.7219 47.1592 18.0939C47.1611 18.4659 47.4271 18.652 47.9591 18.652H55.1022C56.8005 18.652 58.2198 19.0668 59.3638 19.8983C60.545 20.7819 61.1366 21.924 61.1366 23.3247C61.1366 24.7254 60.5394 25.8471 59.3452 26.6916C58.2291 27.5101 56.8154 27.9193 55.1022 27.9175H42.2558L45.0572 24.2976H55.1022C55.5226 24.3032 55.9392 24.225 56.328 24.0632C56.7949 23.8697 57.0274 23.6037 57.0293 23.2671C57.0293 22.9304 56.7968 22.6644 56.328 22.469C55.9336 22.3314 55.5188 22.2663 55.1022 22.2737H47.9591C46.3742 22.2737 45.0498 21.911 43.9876 21.1837C42.8455 20.4042 42.2744 19.3737 42.2744 18.0883C42.2744 16.8029 42.8455 15.765 43.9876 14.9744C45.0516 14.2471 46.3761 13.8843 47.9591 13.8843L60.6883 13.8955Z" fill="#2E6382"/>
<path d="M77.1358 24.3088L74.3326 27.9287H61.8992V13.8955H77.1396L74.3326 17.5359H66.2538V19.024H76.455L73.6517 22.6439H66.2538V24.3181L77.1358 24.3088Z" fill="#2E6382"/>
<path d="M95.5293 24.3088L92.726 27.9287H85.6797C83.241 27.9287 81.2209 27.2516 79.6174 25.8955C78.0139 24.5394 77.2122 22.8374 77.2122 20.7856C77.2122 18.7357 78.0046 17.0745 79.5876 15.8022C81.1706 14.5298 83.2019 13.8937 85.6797 13.8955H95.5293L92.726 17.5359H85.6797C84.4855 17.5359 83.4996 17.8577 82.722 18.4994C81.9668 19.091 81.5352 20.0025 81.5538 20.9604C81.5334 21.9073 81.9668 22.8076 82.722 23.3787C83.4996 23.9981 84.4855 24.3088 85.6797 24.3088H95.5293Z" fill="#2E6382"/>
<path d="M114.935 21.5445C114.935 25.8006 112.014 27.9287 106.175 27.9287H105.262C99.4207 27.9287 96.5003 25.8006 96.5021 21.5445V13.8955H100.842V21.5445C100.842 22.8169 101.4 23.6354 102.516 23.9981C103.113 24.2046 104.332 24.3088 106.175 24.3088C107.643 24.3088 108.688 24.1525 109.309 23.8419C110.152 23.4401 110.572 22.6737 110.574 21.5445V13.8955H114.935V21.5445Z" fill="#2E6382"/>
<path d="M137.318 27.9287H130.993L126.748 24.4055H120.755V27.9287H116.402V20.767H128.493C129.12 20.7874 129.743 20.6758 130.324 20.4359C130.934 20.1494 131.239 19.729 131.239 19.171C131.239 18.0809 130.324 17.5359 128.493 17.5359H116.402L119.243 13.8955H128.101C130.292 13.8955 132.07 14.3103 133.434 15.1418C134.965 16.0887 135.731 17.4391 135.729 19.1896C135.733 20.1624 135.406 21.1055 134.799 21.8663C134.131 22.7034 133.246 23.3396 132.24 23.7061L137.318 27.9287Z" fill="#2E6382"/>
<path d="M154 24.3088L151.197 27.9287H138.76V13.8955H154L151.197 17.5359H143.118V19.024H153.319L150.516 22.6439H143.118V24.3181L154 24.3088Z" fill="#2E6382"/>
<path d="M61.8396 30.3655H63.0543L66.1534 35.7693H64.7397L64.0905 34.5862H60.6659L60.039 35.7693H58.7834L61.8396 30.3655ZM63.5733 33.6115L62.4126 31.4128L61.2072 33.6115H63.5733Z" fill="#999999"/>
<path d="M68.9082 34.7536H72.489V30.3655H73.7465V34.4913C73.7465 35.507 73.421 35.7693 72.4053 35.7693H68.9919C67.9763 35.7693 67.6507 35.507 67.6507 34.4913V30.3655H68.9082V34.7536Z" fill="#999999"/>
<path d="M79.0239 35.7693H77.7682V31.329H75.2924V30.3655H81.5239V31.329H79.0313L79.0239 35.7693Z" fill="#999999"/>
<path d="M83.0568 30.3655H84.3124V32.46H88.2393V30.3655H89.506V35.7693H88.2393V33.4441H84.3124V35.7693H83.0568V30.3655Z" fill="#999999"/>
<path d="M93.496 30.3655H97.4749C98.4924 30.3655 98.8161 30.6278 98.8161 31.6434V34.4913C98.8161 35.507 98.4924 35.7693 97.4749 35.7693H93.496C92.4822 35.7693 92.1567 35.507 92.1567 34.4913V31.636C92.1567 30.6278 92.4822 30.3655 93.496 30.3655ZM97.5605 34.7536V31.329H93.4123V34.7536H97.5605Z" fill="#999999"/>
<path d="M101.467 30.3655H106.095C106.923 30.3655 107.31 30.6594 107.31 31.4128V32.6795C107.31 33.4348 106.923 33.7268 106.095 33.7268H105.382L107.875 35.773H106.074L103.896 33.7268H102.702V35.773H101.467V30.3655ZM102.702 31.2956V32.8042H105.529C105.916 32.8042 106.087 32.7298 106.087 32.3745V31.7253C106.087 31.37 105.901 31.2956 105.529 31.2956H102.702Z" fill="#999999"/>
<path d="M109.866 30.3655H111.121V35.7693H109.866V30.3655Z" fill="#999999"/>
<path d="M116.402 35.7693H115.145V31.329H112.661V30.3655H118.891V31.329H116.402V35.7693Z" fill="#999999"/>
<path d="M120.431 30.3655H121.689V35.7693H120.431V30.3655Z" fill="#999999"/>
<path d="M124.453 30.3655H129.981V31.2956H125.703V32.4991H128.194V33.4292H125.703V34.7704H130.026V35.786H124.445L124.453 30.3655Z" fill="#999999"/>
<path d="M133.501 31.3086V32.4712H136.864C137.882 32.4712 138.216 32.7316 138.216 33.7491V34.4932C138.216 35.5089 137.882 35.7711 136.864 35.7711H133.532C132.517 35.7711 132.182 35.5089 132.182 34.4932V34.3462L133.298 34.1156V34.7555H137.121V33.5203H133.741C132.725 33.5203 132.401 33.258 132.401 32.2424V31.636C132.401 30.6203 132.725 30.358 133.741 30.358H136.81C137.774 30.358 138.149 30.6092 138.149 31.5411V31.6564L137.033 31.9187V31.3011L133.501 31.3086Z" fill="#999999"/>
<path fill-rule="evenodd" clip-rule="evenodd" d="M38.6171 16.496C37.5531 19.5355 36.5709 22.6066 35.4101 25.6108C33.3639 30.9272 30.6444 35.8752 26.831 40.1592C23.5385 43.8572 19.6563 46.6698 14.699 47.5869C12.7216 47.9589 10.6531 47.8176 8.62737 47.918C7.71775 47.9626 7.29363 47.2893 6.80812 46.7089C3.97694 43.3178 2.31952 39.3556 1.25737 35.1256C-0.210311 29.3237 -0.0931201 23.4065 0.141262 17.493C0.206368 15.791 0.678852 14.1056 0.779301 12.4017C0.848127 11.2447 1.40618 10.5229 2.21163 9.84956C4.8289 7.66386 7.79215 6.10131 10.9637 4.88848C12.0296 4.4811 13.1197 4.14441 14.2004 3.77238C16.1518 3.10829 18.1217 2.77718 20.1846 3.26083C20.951 3.44685 21.7658 3.40778 22.9358 3.50265C20.8301 4.49598 19.009 5.21029 17.3348 6.17572C14.8273 7.62479 11.9961 8.17541 9.38446 9.29895C7.4722 10.1472 5.62691 11.1368 3.86161 12.2566C3.24031 12.6807 2.80875 13.3299 2.65622 14.0666C1.69265 20.7632 1.39316 27.4598 3.3296 34.0727C4.20202 37.1402 5.7255 39.9825 7.79401 42.41C8.53808 43.2732 9.29517 43.5485 10.4634 43.329C15.3965 42.3989 18.9346 39.4375 21.9462 35.6818C25.4024 31.3718 27.8169 26.4721 29.7199 21.3231C30.1831 20.0694 30.8527 19.3327 32.0693 18.8584C34.1359 18.0548 36.1505 17.1173 38.1855 16.2355L38.6171 16.496Z" fill="#999999"/>
<path fill-rule="evenodd" clip-rule="evenodd" d="M6.62415 20.3466C6.69855 18.559 7.43146 17.0337 8.42479 15.6144C10.4356 12.7404 13.1236 10.6161 16.0775 8.81358C21.0647 5.76661 26.4945 3.85621 32.1922 2.64896C33.1 2.46294 33.8459 2.19694 34.484 1.46961C34.9602 0.965505 35.5387 0.567428 36.1823 0.307004C37.516 -0.265929 38.6005 -0.0166661 39.2832 0.885518C39.8599 1.64447 39.8264 3.17353 39.2125 4.13524C37.823 6.31536 35.667 6.64647 33.3251 4.96674C30.053 5.43736 26.8498 6.43441 23.6894 7.59516C20.0955 8.91588 16.6747 10.5714 13.5533 12.8167C10.7333 14.8461 8.2518 17.1844 6.62415 20.3466ZM38.5689 2.79033C38.6135 2.08161 37.9327 1.3301 37.1775 1.25197C36.106 1.14222 34.7425 2.31413 34.6681 3.40977C34.616 4.1743 35.2262 4.82908 36.0521 4.90907C37.1849 5.01882 38.4982 3.91946 38.5689 2.79033Z" fill="#2E6382"/>
<path fill-rule="evenodd" clip-rule="evenodd" d="M30.9867 11.3228C23.4307 13.2035 16.2765 15.8245 10.3723 21.0887C9.52219 21.8514 8.74463 22.6922 8.05451 23.6018C7.36438 24.504 6.82679 25.5215 6.19434 26.5316C6.26502 24.6845 7.00165 23.1126 7.9801 21.6319C9.46824 19.3662 11.5144 17.6549 13.715 16.1202C18.557 12.7366 24.0018 10.6848 29.6679 9.17247C30.784 8.87857 31.7885 8.57722 32.6851 7.74014C33.9872 6.52359 35.8102 6.55149 36.6082 7.57645C37.3839 8.57164 37.0341 10.4467 35.8641 11.5275C34.4169 12.8798 33.0125 12.8482 30.9867 11.3228ZM33.9016 11.4158C34.9154 11.3712 35.9999 10.2644 35.9608 9.31199C35.9199 8.54188 35.2633 7.9522 34.4931 7.99312C34.4745 7.99312 34.4541 7.99498 34.4355 7.99685C33.3938 8.08427 32.3279 9.17061 32.3595 10.1119C32.3874 10.8913 33.0515 11.453 33.9016 11.4158Z" fill="#2E6382"/>
<path fill-rule="evenodd" clip-rule="evenodd" d="M28.2019 17.2418C19.913 20.0637 11.8157 23.027 6.47327 30.7207C6.64254 30.051 6.72811 29.3423 6.99784 28.7135C8.08418 26.193 9.94993 24.2993 12.0705 22.6326C16.1629 19.4108 20.8431 17.3107 25.7242 15.6105C27.2607 15.0747 28.9014 14.8143 30.1198 13.5178C30.4918 13.1271 31.2824 12.9932 31.8851 12.9895C33.2151 12.9802 34.0131 14.2116 33.6188 15.4989C32.9063 17.8148 31.0145 18.6388 28.8735 17.5655C28.7042 17.4818 28.5331 17.4018 28.2019 17.2418ZM32.6812 15.151C32.6515 14.4441 32.0544 13.8935 31.3475 13.9233C31.3308 13.9233 31.314 13.9233 31.2973 13.927C30.4621 13.9977 29.4966 15.0096 29.4762 15.8356C29.4743 16.5461 30.0472 17.1228 30.7578 17.1247C30.769 17.1247 30.7801 17.1247 30.7913 17.1247C31.7809 17.1061 32.7277 16.1164 32.6812 15.151Z" fill="#2E6382"/>
<path fill-rule="evenodd" clip-rule="evenodd" d="M8.94751 29.8522C9.09446 29.6513 9.25258 29.4597 9.42185 29.2793C9.61903 29.1249 9.82923 28.9872 10.0487 28.8663C13.2873 31.199 17.0783 32.3709 21.0126 33.2266C19.7551 35.1407 19.7198 35.1481 17.5917 34.6012C14.8015 33.8832 12.1972 32.7615 9.89434 30.9962C9.59671 30.76 9.31768 30.5033 9.05726 30.2261C8.98285 30.148 8.98657 29.9955 8.94751 29.8522Z" fill="#999999"/>
<path fill-rule="evenodd" clip-rule="evenodd" d="M17.6884 37.0305L15.8022 38.5912C12.8259 37.7913 10.138 36.4854 8.00248 34.1993C7.15238 33.2878 7.17842 33.219 7.83878 31.7811C10.4784 34.5602 13.8732 35.9144 17.6884 37.0305Z" fill="#999999"/>
<path fill-rule="evenodd" clip-rule="evenodd" d="M12.9764 40.0885C10.5582 41.3386 10.3592 41.3051 8.77059 39.4114C7.79214 38.2823 7.16899 36.8909 6.97925 35.4083C8.66456 37.6908 10.7294 38.9724 12.9764 40.0885Z" fill="#999999"/>
</g>
<defs>
<clipPath id="clip0_746_38">
<rect width="154" height="47.9199" fill="white"/>
</clipPath>
</defs>
</svg>
